<?xml version="1.0" encoding="utf-8"?>
<!-- Generator: Adobe Illustrator 21.1.0, SVG Export Plug-In . SVG Version: 6.00 Build 0)  -->
<svg version="1.1" id="Layer_1" xmlns="http://www.w3.org/2000/svg" xmlns:xlink="http://www.w3.org/1999/xlink" x="0px" y="0px"
	 viewBox="0 0 838.2 371.4" style="enable-background:new 0 0 838.2 371.4;" xml:space="preserve">
<style type="text/css">
	.st0{fill:#E62C2D;}
	.st1{fill:#E7E8E9;}
	.st2{fill:none;stroke:#E7E8E9;stroke-width:2.9673;stroke-miterlimit:10;}
	.st3{fill:#FFFFFF;}
	.st4{fill:#E42E2E;}
	.st5{fill:#E32E2D;}
</style>
<g>
	<g>
		<g>
			<polygon class="st5" points="392.6,175.9 374.2,207 355.5,175.9 345.9,175.9 345.9,225.9 356.8,225.9 356.8,196.5 371.4,220.6 
				376.6,220.6 391.3,195.9 391.4,225.9 402.2,225.9 402.1,175.9 			"/>
			<path class="st5" d="M436.9,175.9l-22.3,50h11.8l4.4-10.7h23.2l4.4,10.7h12.1l-22.3-50H436.9z M434.6,206.4l7.9-19.1l7.9,19.1
				H434.6z"/>
			<path class="st5" d="M482.2,185.2h17.6v23.8c0,5.5-2.4,8.3-7.1,8.3c-3.6,0-6.6-1.9-9.3-5.5l-6.4,7.7c3.6,4.7,9.6,7.3,16.3,7.3
				c11.8,0,18-6.1,18-18.4v-32.4h-29V185.2z"/>
			<path class="st5" d="M563.2,203.5c0,9.5-4.1,13.4-11.1,13.4c-7,0-11.1-3.9-11.1-13.4v-27.5h-11.6v28c0,14.7,8.4,22.8,22.6,22.8
				c14.2,0,22.6-8.1,22.6-22.8v-28h-11.4V203.5z"/>
		</g>
		<g>
			<polygon class="st5" points="417.1,133.3 392.3,103 382.7,103 382.7,152.9 394.1,152.9 394.1,122.6 419,152.9 428.5,152.9 
				428.5,103 417.1,103 			"/>
			<path class="st5" d="M497.8,127.9c0-15.1-11.2-25-27.5-25h-22.7v50h22.7C486.5,152.9,497.8,143.1,497.8,127.9z M469.6,143.4
				h-10.6v-31h10.6c9.9,0,16.4,5.9,16.4,15.5C486,137.5,479.6,143.4,469.6,143.4z"/>
			<path class="st5" d="M565.1,127.9c0-14.9-11.6-25.8-27.3-25.8c-15.8,0-27.3,11-27.3,25.8c0,14.8,11.6,25.8,27.3,25.8
				C553.5,153.8,565.1,142.9,565.1,127.9z M537.8,143.9c-8.9,0-15.6-6.5-15.6-16c0-9.5,6.7-16,15.6-16c8.9,0,15.6,6.5,15.6,16
				C553.4,137.4,546.7,143.9,537.8,143.9z"/>
			<polygon class="st5" points="592.4,122.6 617.3,152.9 626.8,152.9 626.8,103 615.4,103 615.4,133.3 590.5,103 581,103 581,152.9 
				592.4,152.9 			"/>
			<polygon class="st5" points="684.5,143.7 657.3,143.7 657.3,132.1 680.5,132.1 680.5,123.1 657.3,123.1 657.3,112.2 683.5,112.2 
				683.5,103 645.8,103 645.8,152.9 684.5,152.9 			"/>
			<path class="st5" d="M709.4,117.1c0-3.1,2.6-5.7,9.5-5.7c4.4,0,9.2,1.3,13.8,3.9l3.6-8.8c-4.6-2.9-11.1-4.4-17.3-4.4
				c-14.2,0-21.1,7.1-21.1,15.6c0,18.6,29,12.1,29,21.5c0,3.1-2.8,5.4-9.6,5.4c-6,0-12.3-2.1-16.5-5.2l-3.9,8.7
				c4.4,3.4,12.4,5.8,20.3,5.8c14.3,0,21.2-7.1,21.2-15.5C738.4,120,709.4,126.3,709.4,117.1z"/>
			<path class="st5" d="M815.8,103h-11.4l-22.3,50H794l4.4-10.7h23.2l4.4,10.7h12.1L815.8,103z M802.1,133.4l7.9-19.1l7.9,19.1
				H802.1z"/>
			<polygon class="st5" points="345.9,103 345.9,112.2 352.2,112.2 352.2,152.9 363.7,152.9 363.7,112.2 363.7,103 352.2,103 			"/>
			<polygon class="st5" points="758.2,103 751.9,103 751.9,112.2 758.2,112.2 758.2,152.9 769.7,152.9 769.7,103 769.7,103 			"/>
		</g>
	</g>
	<g>
		<path class="st5" d="M154.8,76.7L154.8,76.7h25.7h0h128.1v-6.4c0-35.4,0-70.2,0-70.2H0c0,0,0,13.6,0,29.7v21.9h154.8V76.7z"/>
		<path class="st5" d="M180.5,154h25.2h0.3c42.7,0,77.3,34.6,77.3,77.3c0,8.9-1.5,17.5-4.3,25.5c-10.5,30.1-39.2,51.7-72.9,51.7
			c-8.9,0-17.5-1.5-25.5-4.3c-30.1-10.5-51.7-39.2-51.7-72.9c0-0.3,0-0.6,0-0.9h26.2c0,0.3,0,0.6,0,0.9c0,18.9,10.3,35.4,25.5,44.3
			c7.5,4.3,16.2,6.8,25.5,6.8c18.9,0,35.4-10.3,44.3-25.5c4.3-7.5,6.8-16.2,6.8-25.5c0-28.2-22.9-51.1-51.1-51.1h-0.3v0h-50.8v-0.9
			V154v-19.5c-2.5,2.2-9.9,8.4-15.9,11.6c0,0,0,0,0,0c-4.9,2.8-10.6,5.9-17,9c-3.1,1.5-6.3,3.1-9.6,4.6
			c-19.1,8.9-34.6,23.2-45.1,34.9c-1.3,1.4-2.5,2.9-3.7,4.2v0l0,0c-6.3,8-11,17.9-11.6,28.7c0,0.7-0.1,1.4-0.1,2.2v1.8v25.6H30.7
			h-4.4v-29.6h0.1c0.6-16.6,6.5-31.9,16-44.3l0,0c9-13.8,21.6-24.2,35.5-33.1c8.3-5.3,17.1-10.1,25.9-14.6
			c7.2-3.8,16.1-7.8,23.1-12.1c6.1-3.8,10.5-7.6,13.8-10.8c0.4-0.4,1-1.1,1.3-1.5c7.9-8.7,12.9-20.9,12.9-34c0-0.2,0-0.3,0-0.5H0v32
			v123.2c0,80.2,154.5,139.5,154.5,139.5s154.1-58.2,154.1-139.5V102.7H180.5V154z"/>
	</g>
</g>
</svg>
