<?xml version="1.0" encoding="utf-8"?>
<!-- Generator: Adobe Illustrator 21.1.0, SVG Export Plug-In . SVG Version: 6.00 Build 0)  -->
<svg version="1.1" id="Layer_1" xmlns="http://www.w3.org/2000/svg" xmlns:xlink="http://www.w3.org/1999/xlink" x="0px" y="0px"
	 viewBox="0 0 1366 768" style="enable-background:new 0 0 1366 768;" xml:space="preserve">
<style type="text/css">
	.st0{fill:#E32C2D;}
</style>
<g>
	<g>
		<path class="st0" d="M321.8,380.5v-61.1h-60.6v61.1H321.8z M306.6,365.3h-30.2v-30.7h30.2V365.3z"/>
		<path class="st0" d="M315.3,469.5h15.6v-0.2c0-25.4-20.6-45.9-45.9-45.9c-5.3,0-10.4,0.9-15.2,2.6c-17.9,6.3-30.7,23.3-30.7,43.4
			c0,5.3,0.9,10.4,2.6,15.2c6.3,17.9,23.3,30.7,43.4,30.7c0.2,0,0.4,0,0.6,0v-15.6c-0.2,0-0.4,0-0.6,0c-11.2,0-21.1-6.1-26.3-15.2
			c-2.6-4.5-4.1-9.6-4.1-15.2c0-11.2,6.1-21.1,15.2-26.3c4.5-2.6,9.7-4.1,15.2-4.1c16.8,0,30.4,13.6,30.4,30.4V469.5z"/>
		<path class="st0" d="M433.4,588.8c0-16.7-13.5-30.2-30.2-30.2c-16.7,0-30.2,13.5-30.2,30.2c0,16.7,13.5,30.2,30.2,30.2
			C419.9,618.9,433.4,605.4,433.4,588.8z"/>
		<path class="st0" d="M567.6,708.3c0-5.3-0.9-10.4-2.6-15.2c-6.3-17.9-23.3-30.7-43.4-30.7c-0.2,0-0.4,0-0.6,0v15.6
			c0.2,0,0.4,0,0.6,0c11.2,0,21.1,6.1,26.3,15.2c2.6,4.5,4.1,9.6,4.1,15.2c0,11.2-6.1,21.1-15.2,26.3c-4.5,2.6-9.7,4.1-15.2,4.1
			c-16.8,0-30.4-13.6-30.4-30.4v-0.2h-15.6v0.2c0,25.4,20.6,45.9,45.9,45.9c5.3,0,10.4-0.9,15.2-2.6
			C554.7,745.3,567.6,728.3,567.6,708.3z"/>
		<g>
			<rect x="343.6" y="409.6" class="st0" width="119.4" height="7.5"/>
			<rect x="343.6" y="432" class="st0" width="119.4" height="14.9"/>
			<rect x="343.6" y="461.8" class="st0" width="119.4" height="15"/>
			<rect x="343.6" y="491.7" class="st0" width="119.4" height="15"/>
			<rect x="343.6" y="521.6" class="st0" width="119.4" height="7.5"/>
		</g>
		<g>
			<rect x="343.6" y="648.5" class="st0" width="7.5" height="119.4"/>
			<rect x="366" y="648.5" class="st0" width="14.9" height="119.4"/>
			<rect x="395.8" y="648.5" class="st0" width="15" height="119.4"/>
			<rect x="425.7" y="648.5" class="st0" width="15" height="119.4"/>
			<rect x="455.5" y="648.5" class="st0" width="7.5" height="119.4"/>
		</g>
		<g>
			<rect x="343.6" y="290.2" class="st0" width="7.5" height="119.4"/>
			<rect x="365.9" y="290.2" class="st0" width="14.9" height="119.4"/>
			<rect x="395.7" y="290.2" class="st0" width="15" height="119.4"/>
			<rect x="425.6" y="290.2" class="st0" width="15" height="119.4"/>
			<rect x="455.5" y="290.2" class="st0" width="7.5" height="119.4"/>
		</g>
		<g>
			<polygon class="st0" points="239.6,591 239.6,589.2 239.6,544.7 284.3,544.7 285.4,544.7 343.5,544.7 343.5,553.3 309.3,553.3 
				308.2,553.3 248.2,553.3 248.2,553.3 248.2,568.6 248.2,613.2 248.2,615 248.2,648.5 239.6,648.5 239.6,635.6 			"/>
			<polygon class="st0" points="343.5,616.6 343.5,625.2 320.1,625.2 320.1,625.2 320.1,640.5 320.1,648.5 311.5,648.5 311.5,616.6 
							"/>
			<polygon class="st0" points="263.5,613.2 263.5,568.6 308.2,568.6 309.3,568.6 343.5,568.6 343.5,577.2 333.3,577.2 332.2,577.2 
				272.1,577.2 272.1,577.3 272.1,592.6 272.1,637.2 272.1,638.9 272.1,648.5 263.5,648.5 263.5,615 			"/>
			<polygon class="st0" points="287.5,637.2 287.5,592.6 332.2,592.6 333.3,592.6 343.5,592.6 343.5,601.2 296.1,601.2 296.1,601.2 
				296.1,616.6 296.1,648.5 287.5,648.5 287.5,638.9 			"/>
			<rect x="335.4" y="640.5" class="st0" width="8.1" height="7.9"/>
		</g>
		<g>
			<polygon class="st0" points="582.5,648.5 570,648.5 463,541.6 463,529.1 472.7,529.1 582.5,638.8 			"/>
			<polygon class="st0" points="561.2,529.1 582.5,550.3 582.5,572.7 538.9,529.1 			"/>
			<polygon class="st0" points="525.9,648.5 463,585.7 463,563.6 548,648.5 			"/>
			<polygon class="st0" points="484.3,648.5 463,627.3 463,607.7 503.9,648.5 			"/>
			<polygon class="st0" points="516.9,529.1 582.5,594.7 582.5,616.8 494.8,529.1 			"/>
		</g>
		<g>
			<polygon class="st0" points="239.6,232.5 239.6,230.8 239.6,186.2 284.3,186.2 285.4,186.2 343.5,186.2 343.5,194.8 309.3,194.8 
				308.2,194.8 248.2,194.8 248.2,194.8 248.2,210.2 248.2,254.7 248.2,256.5 248.2,290 239.6,290 239.6,277.1 			"/>
			<polygon class="st0" points="343.5,258.1 343.5,266.7 320.1,266.7 320.1,266.7 320.1,282.1 320.1,290 311.5,290 311.5,258.1 			
				"/>
			<polygon class="st0" points="263.5,254.7 263.5,210.2 308.2,210.2 309.3,210.2 343.5,210.2 343.5,218.8 333.3,218.8 332.2,218.8 
				272.1,218.8 272.1,218.8 272.1,234.1 272.1,278.7 272.1,280.5 272.1,290 263.5,290 263.5,256.5 			"/>
			<polygon class="st0" points="287.5,278.7 287.5,234.1 332.2,234.1 333.3,234.1 343.5,234.1 343.5,242.7 296.1,242.7 296.1,242.8 
				296.1,258.1 296.1,290 287.5,290 287.5,280.5 			"/>
			<rect x="335.4" y="282.1" class="st0" width="8.1" height="7.9"/>
		</g>
		<path class="st0" d="M582.5,529.1h-0.2c0.1-0.1,0.2-0.3,0.2-0.4V529.1z"/>
	</g>
	<g>
		<path class="st0" d="M200,387.4c1.5-4.2,2.3-8.6,2.5-13.2c15.2-0.6,28.5-8.7,36.3-20.6v55.7h-55.1
			C191.2,403.9,196.9,396.3,200,387.4z"/>
		<path class="st0" d="M145.3,409.3h-25.5v-25.5c3.8,0.6,7.5,1.8,10.7,3.7C138.3,392.1,143.9,400,145.3,409.3z"/>
		<path class="st0" d="M156.8,342c5.5,0,10.7,1.5,15.1,4.1c9.1,5.2,15.2,15,15.2,26.3c0,5.5-1.5,10.7-4,15.2
			c-4.8,8.3-13.4,14-23.3,15c-3.8-14.9-14.9-26.9-29.3-31.9c-1.3-0.4-2.5-0.8-3.8-1.2C128.1,354,141,342,156.8,342z"/>
		<path class="st0" d="M171.9,329c-0.5-0.2-1.1-0.4-1.6-0.5v-0.1c0-16.7,13.6-30.3,30.3-30.3c5.5,0,10.7,1.5,15.1,4.1
			c9.1,5.2,15.2,15,15.2,26.3c0,5.5-1.5,10.7-4.1,15.2c-5.2,9.1-15,15.2-26.3,15.2h-0.1C196.3,344.9,185.6,333.8,171.9,329z"/>
		<path class="st0" d="M119.7,290.2h55.7c-11.9,7.9-19.9,21.1-20.6,36.3c-14.4,0.6-27.1,7.9-35.1,18.8V290.2z"/>
		<path class="st0" d="M225.9,290.2h13.1v13C235.5,298,231,293.6,225.9,290.2z"/>
		<g>
			<path class="st0" d="M119.7,290.2h55.7c-11.9,7.9-19.9,21.1-20.6,36.3c-14.4,0.6-27.1,7.9-35.1,18.8V290.2z"/>
			<path class="st0" d="M156.8,342c5.5,0,10.7,1.5,15.1,4.1c9.1,5.2,15.2,15,15.2,26.3c0,5.5-1.5,10.7-4,15.2
				c-4.8,8.3-13.4,14-23.3,15c-3.8-14.9-14.9-26.9-29.3-31.9c-1.3-0.4-2.5-0.8-3.8-1.2C128.1,354,141,342,156.8,342z"/>
			<path class="st0" d="M225.9,290.2h13.1v13C235.5,298,231,293.6,225.9,290.2z"/>
			<path class="st0" d="M200.6,298.1c5.5,0,10.7,1.5,15.1,4.1c9.1,5.2,15.2,15,15.2,26.3c0,5.5-1.5,10.7-4.1,15.2
				c-5.2,9.1-15,15.2-26.3,15.2h-0.1c-4.3-13.9-15-24.9-28.6-29.7c-0.5-0.2-1.1-0.4-1.6-0.5v-0.1
				C170.3,311.7,183.9,298.1,200.6,298.1z"/>
			<path class="st0" d="M119.7,383.8c3.8,0.6,7.5,1.8,10.7,3.7c7.8,4.5,13.4,12.5,14.8,21.8h-25.5V383.8z"/>
			<path class="st0" d="M238.9,353.6v55.7h-55.1c7.4-5.4,13.2-13,16.3-21.9c1.5-4.2,2.3-8.6,2.5-13.2
				C217.8,373.6,231,365.6,238.9,353.6z"/>
		</g>
	</g>
	<g>
		<path class="st0" d="M99.5,237.4c-8.2-5.4-14.4-12.9-19.7-21.2c-3.2-5-6-10.2-8.7-15.4c-2.2-4.3-4.8-9.1-7.4-13.3
			c-2.2-3.6-4.5-6.8-6.4-8.7c-0.2-0.2-0.5-0.4-0.7-0.6c-4.4-4-10-6.7-16.2-7.5H0v48.3c4.4,2.4,8.3,5.5,11.7,9.2h0
			c0.8,0.7,1.7,1.8,2.8,3.3c0,0,0,0,0,0c1.6,2.1,3.1,4.4,4.3,6.8c0,0,0,0,0,0c1.7,2.9,3.5,6.3,5.4,10.1c0.9,1.8,1.8,3.7,2.8,5.7
			c5.3,11.4,13.8,20.6,20.8,26.9c0.9,0.8,1.7,1.5,2.5,2.2h0c4.8,3.7,10.6,6.1,17.1,6.4l17.1,0v0.6h35.2v-44.1
			C112.1,244.9,105.3,241.8,99.5,237.4L99.5,237.4z M76.6,252.2c0.9,0.8,1.7,1.5,2.5,2.2h0c4.8,3.7,10.6,6.1,17.1,6.4l17.1,0v15.7
			H96.2v0c-9.9-0.4-19-3.8-26.4-9.5l0,0c-8.2-5.4-14.4-12.9-19.7-21.2c-3.2-5-6-10.2-8.7-15.4c-2.2-4.3-4.8-9.1-7.4-13.3
			c-2.2-3.6-4.5-6.8-6.4-8.7c-0.2-0.2-0.5-0.4-0.7-0.6c-5.4-4.8-12.5-7.8-20.3-7.8c-0.1,0-0.2,0-0.3,0v-15.7c0.1,0,0.2,0,0.3,0
			c13.4,0,25.5,5.7,33.9,14.9h0c0.8,0.7,1.7,1.8,2.8,3.3c0,0,0,0,0,0c1.6,2.1,3.1,4.4,4.3,6.8c0,0,0,0,0,0c1.7,2.9,3.5,6.3,5.4,10.1
			c0.9,1.8,1.8,3.7,2.8,5.7C61.1,236.7,69.7,245.9,76.6,252.2z"/>
		<path class="st0" d="M21.2,274.7c-3.2-5-6-10.2-8.7-15.4c-2.2-4.3-4.8-9.1-7.4-13.3c-1.8-2.9-3.5-5.5-5.1-7.4v51.2
			c0.1,0.1,0.2,0.3,0.2,0.4h33.6C28.9,285.8,24.9,280.4,21.2,274.7z"/>
		<path class="st0" d="M101.1,170.8c0,0,0-0.1-0.1-0.1H71.2c0.5,0.6,1.1,1.4,1.8,2.3c0,0,0,0,0,0c1.6,2.1,3.1,4.4,4.3,6.8
			c0,0,0,0,0,0c1.7,2.9,3.5,6.3,5.4,10.1c0.9,1.8,1.8,3.7,2.8,5.7c5.3,11.4,13.8,20.6,20.8,26.9c0.9,0.8,1.7,1.5,2.5,2.2h0
			c3.2,2.5,6.8,4.4,10.8,5.4v-31.1c-3.7-3.9-6.9-8.3-9.9-12.9C106.6,181.3,103.8,176,101.1,170.8z"/>
		<path class="st0" d="M119.6,173.2v-2.5h-1.5C118.6,171.5,119.1,172.3,119.6,173.2z"/>
		<path class="st0" d="M0,290.3h0.2c-0.1-0.1-0.2-0.3-0.2-0.4V290.3z"/>
	</g>
	<path class="st0" d="M90,708.2c0-16.7-13.5-30.2-30.2-30.2c-16.7,0-30.2,13.5-30.2,30.2c0,16.7,13.5,30.2,30.2,30.2
		C76.5,738.4,90,724.9,90,708.2z"/>
	<g>
		<rect x="0.1" y="529.1" class="st0" width="119.4" height="7.5"/>
		<rect x="0.1" y="551.5" class="st0" width="119.4" height="14.9"/>
		<rect x="0.1" y="581.3" class="st0" width="119.4" height="15"/>
		<rect x="0.1" y="611.2" class="st0" width="119.4" height="15"/>
		<rect x="0.1" y="641" class="st0" width="119.4" height="7.5"/>
	</g>
	<g>
		<polygon class="st0" points="239,768 226.5,768 119.6,661.1 119.6,648.6 129.3,648.6 239,758.3 		"/>
		<polygon class="st0" points="217.8,648.6 239,669.8 239,692.2 195.4,648.6 		"/>
		<polygon class="st0" points="182.5,768 119.6,705.1 119.6,683.1 204.5,768 		"/>
		<polygon class="st0" points="140.8,768 119.6,746.8 119.6,727.1 160.5,768 		"/>
		<polygon class="st0" points="173.4,648.6 239,714.2 239,736.3 151.3,648.6 		"/>
	</g>
	<path class="st0" d="M243.1,655.7h-0.2c0.1-0.1,0.2-0.3,0.2-0.4V655.7z"/>
	<rect y="409.7" class="st0" width="119.7" height="119.4"/>
</g>
</svg>
